<svg width="130" height="28" xmlns="http://www.w3.org/2000/svg"><path d="M0 1.2h5.04c1.44 0 2.59.44 3.33 1.17.57.57.9 1.39.9 2.31v.03c0 1.94-1.34 3.08-3.18 3.41l3.6 4.78H8.07l-3.4-4.55H1.32v4.55H0V1.2zm4.92 5.97c1.76 0 3.01-.9 3.01-2.41v-.03c0-1.44-1.1-2.31-2.99-2.31H1.32v4.75h3.6zm8.99-5.97h8.47v1.2h-7.14v4h6.39v1.2h-6.39v4.1h7.23v1.2h-8.55V1.2zm11.74 0h1.47l4.17 10.09L35.47 1.2h1.42l-5.04 11.79h-1.17L25.65 1.2zm15.34 0h1.32v11.71h-1.32V1.2zm9.31 1.23h-3.93V1.21h9.2v1.22h-3.93v10.49H50.3V2.43zm11.67-1.31h1.24l5.34 11.79h-1.42l-1.37-3.09h-6.37L58 12.91h-1.36l5.34-11.79zm3.26 7.51l-2.66-5.97-2.68 5.97h5.34zm7.3-7.43h1.32v10.49h6.59v1.22h-7.91V1.2zm16-.08h1.24l5.34 11.79h-1.42l-1.37-3.09h-6.37l-1.39 3.09H83.2l5.34-11.79zm3.26 7.51l-2.66-5.97-2.68 5.97h5.34zm6.3 2.58l.82-.97c1.22 1.1 2.39 1.66 4.02 1.66s2.61-.84 2.61-1.99v-.03c0-1.09-.59-1.71-3.04-2.23-2.69-.59-3.93-1.46-3.93-3.38v-.03c0-1.84 1.62-3.2 3.85-3.2 1.71 0 2.93.48 4.12 1.44l-.77 1.02c-1.09-.89-2.17-1.27-3.38-1.27-1.52 0-2.49.84-2.49 1.89v.03c0 1.1.6 1.72 3.18 2.28 2.61.57 3.81 1.52 3.81 3.31v.03c0 2.01-1.67 3.31-4 3.31-1.86 0-3.38-.62-4.78-1.87zM111.24 1.2h1.32v5.2h6.76V1.2h1.32v11.71h-1.32V7.64h-6.76v5.27h-1.32V1.2zM24.73 26.96c-2.08 0-3.65-1.61-3.65-3.74v-.02c0-2.11 1.62-3.76 3.68-3.76 1.41 0 2.19.55 2.83 1.15l.1.1-.73.79-.1-.1c-.68-.65-1.31-.92-2.1-.92-1.46 0-2.57 1.17-2.57 2.73s1.13 2.77 2.57 2.77c.95 0 1.55-.39 2.16-.97l.1-.1.72.71-.1.1c-.62.63-1.45 1.27-2.9 1.27zm9.62 0c-2.11 0-3.7-1.61-3.7-3.74v-.02c0-2.11 1.63-3.76 3.72-3.76s3.7 1.61 3.7 3.74-1.63 3.78-3.72 3.78zm0-6.51c-1.48 0-2.6 1.17-2.6 2.73s1.12 2.77 2.62 2.77 2.6-1.17 2.6-2.73v-.02c0-1.57-1.12-2.75-2.62-2.75zm9.91 6.49c-1.13 0-2.07-.37-2.95-1.16l-.1-.09.67-.8.11.1c.75.68 1.42.95 2.3.95s1.42-.42 1.42-1.05c0-.57-.26-.91-1.71-1.21-1.48-.32-2.46-.81-2.46-2.16 0-1.21 1.03-2.07 2.44-2.07 1.01 0 1.77.27 2.55.89l.11.09-.63.84-.11-.09c-.61-.5-1.22-.73-1.93-.73-.79 0-1.35.41-1.35.99s.28.92 1.79 1.24c1.68.37 2.39 1 2.39 2.12 0 1.27-1.04 2.14-2.53 2.14zm13.37-.1h-1.07v-5.35l-2.33 3.43h-.19l-2.33-3.42v5.34h-1.05v-7.28h1.02l.04.06 2.43 3.64 2.47-3.7h1.02v7.28zm9.55 0h-5.39v-7.28h5.34v1h-4.27v2.1h3.82v1.01h-3.82v2.16h4.32v1zm6.49 0h-1.08v-6.27h-2.35v-1.01h5.78v1.01h-2.35v6.27zm6.95 0h-1.07v-7.28h1.07v7.28zm7.5.12c-2.08 0-3.65-1.61-3.65-3.74v-.02c0-2.11 1.62-3.76 3.68-3.76 1.41 0 2.19.55 2.83 1.15l.1.1-.73.79-.1-.1c-.68-.65-1.31-.92-2.1-.92-1.46 0-2.57 1.17-2.57 2.73s1.13 2.77 2.57 2.77c.95 0 1.55-.39 2.16-.97l.1-.1.72.71-.1.1c-.62.63-1.45 1.27-2.9 1.27zm8.9-.02c-1.13 0-2.07-.37-2.95-1.16l-.1-.09.67-.8.11.1c.75.68 1.42.95 2.3.95s1.42-.42 1.42-1.05c0-.57-.26-.91-1.71-1.21-1.48-.32-2.46-.81-2.46-2.16 0-1.21 1.03-2.07 2.44-2.07 1.01 0 1.77.27 2.55.89l.11.09-.63.84-.11-.09c-.61-.5-1.22-.73-1.93-.73-.79 0-1.35.41-1.35.99s.28.92 1.79 1.24c1.68.37 2.39 1 2.39 2.12 0 1.27-1.04 2.14-2.53 2.14zm26.57-22.49v-.02c0-1.75 1.42-3.23 3.21-3.23s3.21 1.46 3.21 3.21v.02c0 1.75-1.42 3.23-3.21 3.23s-3.21-1.46-3.21-3.21zm6.05-.02v-.02c0-1.57-1.22-2.86-2.84-2.86s-2.84 1.31-2.84 2.88v.02c0 1.57 1.22 2.86 2.84 2.86s2.84-1.31 2.84-2.88zm-4.09-1.7h1.47c.72 0 1.25.35 1.25 1.03 0 .53-.31.87-.76 1l.87 1.24h-.76l-.77-1.12h-.68V6h-.63V2.74zm1.42 1.62c.42 0 .66-.22.66-.53 0-.35-.24-.53-.66-.53h-.79v1.07h.79z"/></svg>